<mxfile host="app.diagrams.net" agent="Mozilla/5.0 (Macintosh; Intel Mac OS X 10_15_7) AppleWebKit/537.36 (KHTML, like Gecko) Chrome/136.0.0.0 Safari/537.36" version="27.0.9">
  <diagram name="Page-1" id="qLMerbtFaqG3wu9E0TOl">
    <mxGraphModel dx="893" dy="661" grid="1" gridSize="10" guides="1" tooltips="1" connect="1" arrows="1" fold="1" page="1" pageScale="1" pageWidth="850" pageHeight="1100" math="0" shadow="0">
      <root>
        <mxCell id="0" />
        <mxCell id="1" parent="0" />
        <mxCell id="jEJD-_JS-CdeB-gLq0yP-1" value="Registration Process" style="swimlane;childLayout=stackLayout;resizeParent=1;resizeParentMax=0;horizontal=1;startSize=20;horizontalStack=0;html=1;" vertex="1" parent="1">
          <mxGeometry x="130" y="160" width="960" height="660" as="geometry" />
        </mxCell>
        <mxCell id="jEJD-_JS-CdeB-gLq0yP-2" value="Client" style="swimlane;startSize=20;horizontal=0;html=1;" vertex="1" parent="jEJD-_JS-CdeB-gLq0yP-1">
          <mxGeometry y="20" width="960" height="310" as="geometry" />
        </mxCell>
        <mxCell id="jEJD-_JS-CdeB-gLq0yP-3" style="edgeStyle=orthogonalEdgeStyle;rounded=0;orthogonalLoop=1;jettySize=auto;html=1;exitX=0.5;exitY=1;exitDx=0;exitDy=0;entryX=0.5;entryY=0;entryDx=0;entryDy=0;" edge="1" parent="jEJD-_JS-CdeB-gLq0yP-2" source="jEJD-_JS-CdeB-gLq0yP-4">
          <mxGeometry relative="1" as="geometry">
            <mxPoint x="97.5" y="100" as="targetPoint" />
          </mxGeometry>
        </mxCell>
        <mxCell id="jEJD-_JS-CdeB-gLq0yP-4" value="Start" style="ellipse;whiteSpace=wrap;html=1;" vertex="1" parent="jEJD-_JS-CdeB-gLq0yP-2">
          <mxGeometry x="60" y="20" width="75" height="50" as="geometry" />
        </mxCell>
        <mxCell id="jEJD-_JS-CdeB-gLq0yP-60" style="edgeStyle=orthogonalEdgeStyle;rounded=0;orthogonalLoop=1;jettySize=auto;html=1;exitX=1;exitY=0.5;exitDx=0;exitDy=0;entryX=0;entryY=0.5;entryDx=0;entryDy=0;" edge="1" parent="jEJD-_JS-CdeB-gLq0yP-2" source="jEJD-_JS-CdeB-gLq0yP-58" target="jEJD-_JS-CdeB-gLq0yP-59">
          <mxGeometry relative="1" as="geometry" />
        </mxCell>
        <mxCell id="jEJD-_JS-CdeB-gLq0yP-58" value="email, password" style="shape=parallelogram;perimeter=parallelogramPerimeter;whiteSpace=wrap;html=1;fixedSize=1;" vertex="1" parent="jEJD-_JS-CdeB-gLq0yP-2">
          <mxGeometry x="37.5" y="98" width="162.5" height="60" as="geometry" />
        </mxCell>
        <mxCell id="jEJD-_JS-CdeB-gLq0yP-63" value="No" style="edgeStyle=orthogonalEdgeStyle;rounded=0;orthogonalLoop=1;jettySize=auto;html=1;exitX=0.5;exitY=0;exitDx=0;exitDy=0;entryX=0.75;entryY=0;entryDx=0;entryDy=0;" edge="1" parent="jEJD-_JS-CdeB-gLq0yP-2" source="jEJD-_JS-CdeB-gLq0yP-59" target="jEJD-_JS-CdeB-gLq0yP-58">
          <mxGeometry relative="1" as="geometry" />
        </mxCell>
        <mxCell id="jEJD-_JS-CdeB-gLq0yP-59" value="&lt;font style=&quot;font-size: 10px;&quot;&gt;reCAPTCHA&lt;/font&gt;" style="rhombus;whiteSpace=wrap;html=1;" vertex="1" parent="jEJD-_JS-CdeB-gLq0yP-2">
          <mxGeometry x="240" y="88" width="80" height="80" as="geometry" />
        </mxCell>
        <mxCell id="jEJD-_JS-CdeB-gLq0yP-68" value="Yes" style="edgeStyle=orthogonalEdgeStyle;rounded=0;orthogonalLoop=1;jettySize=auto;html=1;exitX=1;exitY=0.5;exitDx=0;exitDy=0;entryX=0;entryY=0.5;entryDx=0;entryDy=0;" edge="1" parent="jEJD-_JS-CdeB-gLq0yP-2" source="jEJD-_JS-CdeB-gLq0yP-65" target="jEJD-_JS-CdeB-gLq0yP-67">
          <mxGeometry relative="1" as="geometry" />
        </mxCell>
        <mxCell id="jEJD-_JS-CdeB-gLq0yP-69" style="edgeStyle=orthogonalEdgeStyle;rounded=0;orthogonalLoop=1;jettySize=auto;html=1;exitX=0;exitY=0;exitDx=0;exitDy=0;entryX=0.75;entryY=0;entryDx=0;entryDy=0;" edge="1" parent="jEJD-_JS-CdeB-gLq0yP-2" source="jEJD-_JS-CdeB-gLq0yP-65" target="jEJD-_JS-CdeB-gLq0yP-58">
          <mxGeometry relative="1" as="geometry">
            <Array as="points">
              <mxPoint x="380" y="70" />
              <mxPoint x="159" y="70" />
            </Array>
          </mxGeometry>
        </mxCell>
        <mxCell id="jEJD-_JS-CdeB-gLq0yP-70" value="No" style="edgeLabel;html=1;align=center;verticalAlign=middle;resizable=0;points=[];" vertex="1" connectable="0" parent="jEJD-_JS-CdeB-gLq0yP-69">
          <mxGeometry x="-0.5255" y="-1" relative="1" as="geometry">
            <mxPoint as="offset" />
          </mxGeometry>
        </mxCell>
        <mxCell id="jEJD-_JS-CdeB-gLq0yP-65" value="Succeed" style="rhombus;whiteSpace=wrap;html=1;" vertex="1" parent="jEJD-_JS-CdeB-gLq0yP-2">
          <mxGeometry x="360" y="88" width="80" height="80" as="geometry" />
        </mxCell>
        <mxCell id="jEJD-_JS-CdeB-gLq0yP-80" value="Yes" style="edgeStyle=orthogonalEdgeStyle;rounded=0;orthogonalLoop=1;jettySize=auto;html=1;exitX=0.5;exitY=0;exitDx=0;exitDy=0;entryX=0;entryY=0.5;entryDx=0;entryDy=0;" edge="1" parent="jEJD-_JS-CdeB-gLq0yP-2" source="jEJD-_JS-CdeB-gLq0yP-67" target="jEJD-_JS-CdeB-gLq0yP-79">
          <mxGeometry relative="1" as="geometry" />
        </mxCell>
        <mxCell id="jEJD-_JS-CdeB-gLq0yP-67" value="MFA&amp;nbsp;&lt;div&gt;enabled&lt;/div&gt;" style="rhombus;whiteSpace=wrap;html=1;" vertex="1" parent="jEJD-_JS-CdeB-gLq0yP-2">
          <mxGeometry x="490" y="88" width="80" height="80" as="geometry" />
        </mxCell>
        <mxCell id="jEJD-_JS-CdeB-gLq0yP-75" value="Login" style="rounded=0;whiteSpace=wrap;html=1;" vertex="1" parent="jEJD-_JS-CdeB-gLq0yP-2">
          <mxGeometry x="38" y="210" width="120" height="60" as="geometry" />
        </mxCell>
        <mxCell id="jEJD-_JS-CdeB-gLq0yP-82" style="edgeStyle=orthogonalEdgeStyle;rounded=0;orthogonalLoop=1;jettySize=auto;html=1;exitX=0.5;exitY=1;exitDx=0;exitDy=0;entryX=0.25;entryY=0;entryDx=0;entryDy=0;" edge="1" parent="jEJD-_JS-CdeB-gLq0yP-2" source="jEJD-_JS-CdeB-gLq0yP-79" target="jEJD-_JS-CdeB-gLq0yP-81">
          <mxGeometry relative="1" as="geometry" />
        </mxCell>
        <mxCell id="jEJD-_JS-CdeB-gLq0yP-79" value="Fetch MFA methods" style="rounded=0;whiteSpace=wrap;html=1;" vertex="1" parent="jEJD-_JS-CdeB-gLq0yP-2">
          <mxGeometry x="570" y="20" width="120" height="60" as="geometry" />
        </mxCell>
        <mxCell id="jEJD-_JS-CdeB-gLq0yP-104" style="edgeStyle=orthogonalEdgeStyle;rounded=0;orthogonalLoop=1;jettySize=auto;html=1;exitX=0.75;exitY=0;exitDx=0;exitDy=0;entryX=0.75;entryY=0;entryDx=0;entryDy=0;" edge="1" parent="jEJD-_JS-CdeB-gLq0yP-2" source="jEJD-_JS-CdeB-gLq0yP-81" target="jEJD-_JS-CdeB-gLq0yP-87">
          <mxGeometry relative="1" as="geometry" />
        </mxCell>
        <mxCell id="jEJD-_JS-CdeB-gLq0yP-105" value="TOTP" style="edgeLabel;html=1;align=center;verticalAlign=middle;resizable=0;points=[];" vertex="1" connectable="0" parent="jEJD-_JS-CdeB-gLq0yP-104">
          <mxGeometry x="-0.2442" y="1" relative="1" as="geometry">
            <mxPoint as="offset" />
          </mxGeometry>
        </mxCell>
        <mxCell id="jEJD-_JS-CdeB-gLq0yP-81" value="Choose method" style="shape=parallelogram;perimeter=parallelogramPerimeter;whiteSpace=wrap;html=1;fixedSize=1;" vertex="1" parent="jEJD-_JS-CdeB-gLq0yP-2">
          <mxGeometry x="590" y="106" width="120" height="60" as="geometry" />
        </mxCell>
        <mxCell id="jEJD-_JS-CdeB-gLq0yP-87" value="OTP code" style="shape=parallelogram;perimeter=parallelogramPerimeter;whiteSpace=wrap;html=1;fixedSize=1;" vertex="1" parent="jEJD-_JS-CdeB-gLq0yP-2">
          <mxGeometry x="720" y="108" width="120" height="60" as="geometry" />
        </mxCell>
        <mxCell id="jEJD-_JS-CdeB-gLq0yP-22" value="Server" style="swimlane;startSize=20;horizontal=0;html=1;" vertex="1" parent="jEJD-_JS-CdeB-gLq0yP-1">
          <mxGeometry y="330" width="960" height="330" as="geometry" />
        </mxCell>
        <mxCell id="jEJD-_JS-CdeB-gLq0yP-23" value="Middleware" style="swimlane;startSize=20;horizontal=0;html=1;" vertex="1" parent="jEJD-_JS-CdeB-gLq0yP-22">
          <mxGeometry x="20" width="850" height="70" as="geometry" />
        </mxCell>
        <mxCell id="jEJD-_JS-CdeB-gLq0yP-61" value="Check User authentication" style="rounded=0;whiteSpace=wrap;html=1;" vertex="1" parent="jEJD-_JS-CdeB-gLq0yP-22">
          <mxGeometry x="50" y="110" width="120" height="60" as="geometry" />
        </mxCell>
        <mxCell id="jEJD-_JS-CdeB-gLq0yP-72" value="Generate+ return &lt;br&gt;Access &amp;amp; Refresh tokens" style="rounded=0;whiteSpace=wrap;html=1;" vertex="1" parent="jEJD-_JS-CdeB-gLq0yP-22">
          <mxGeometry x="50" y="200" width="120" height="60" as="geometry" />
        </mxCell>
        <mxCell id="jEJD-_JS-CdeB-gLq0yP-83" value="Generate OTP &amp;amp; send email&amp;nbsp;" style="rounded=0;whiteSpace=wrap;html=1;" vertex="1" parent="jEJD-_JS-CdeB-gLq0yP-22">
          <mxGeometry x="560" y="110" width="120" height="60" as="geometry" />
        </mxCell>
        <mxCell id="jEJD-_JS-CdeB-gLq0yP-99" style="edgeStyle=orthogonalEdgeStyle;rounded=0;orthogonalLoop=1;jettySize=auto;html=1;exitX=0;exitY=0.5;exitDx=0;exitDy=0;entryX=1;entryY=0.5;entryDx=0;entryDy=0;" edge="1" parent="jEJD-_JS-CdeB-gLq0yP-22" source="jEJD-_JS-CdeB-gLq0yP-92" target="jEJD-_JS-CdeB-gLq0yP-98">
          <mxGeometry relative="1" as="geometry" />
        </mxCell>
        <mxCell id="jEJD-_JS-CdeB-gLq0yP-92" value="Verify OTP" style="rounded=0;whiteSpace=wrap;html=1;" vertex="1" parent="jEJD-_JS-CdeB-gLq0yP-22">
          <mxGeometry x="560" y="190" width="120" height="60" as="geometry" />
        </mxCell>
        <mxCell id="jEJD-_JS-CdeB-gLq0yP-100" style="edgeStyle=orthogonalEdgeStyle;rounded=0;orthogonalLoop=1;jettySize=auto;html=1;exitX=0;exitY=0.5;exitDx=0;exitDy=0;entryX=0.5;entryY=1;entryDx=0;entryDy=0;" edge="1" parent="jEJD-_JS-CdeB-gLq0yP-22" source="jEJD-_JS-CdeB-gLq0yP-98" target="jEJD-_JS-CdeB-gLq0yP-72">
          <mxGeometry relative="1" as="geometry" />
        </mxCell>
        <mxCell id="jEJD-_JS-CdeB-gLq0yP-103" value="Yes" style="edgeLabel;html=1;align=center;verticalAlign=middle;resizable=0;points=[];" vertex="1" connectable="0" parent="jEJD-_JS-CdeB-gLq0yP-100">
          <mxGeometry x="-0.7297" y="-2" relative="1" as="geometry">
            <mxPoint as="offset" />
          </mxGeometry>
        </mxCell>
        <mxCell id="jEJD-_JS-CdeB-gLq0yP-98" value="Succeed" style="rhombus;whiteSpace=wrap;html=1;" vertex="1" parent="jEJD-_JS-CdeB-gLq0yP-22">
          <mxGeometry x="420" y="200" width="80" height="80" as="geometry" />
        </mxCell>
        <mxCell id="jEJD-_JS-CdeB-gLq0yP-106" value="*TOTP doesnt need to generate OTP code in the backend" style="text;html=1;align=center;verticalAlign=middle;whiteSpace=wrap;rounded=0;" vertex="1" parent="jEJD-_JS-CdeB-gLq0yP-22">
          <mxGeometry x="510" y="290" width="360" height="30" as="geometry" />
        </mxCell>
        <mxCell id="jEJD-_JS-CdeB-gLq0yP-62" style="edgeStyle=orthogonalEdgeStyle;rounded=0;orthogonalLoop=1;jettySize=auto;html=1;exitX=0.5;exitY=1;exitDx=0;exitDy=0;entryX=0.5;entryY=0;entryDx=0;entryDy=0;" edge="1" parent="jEJD-_JS-CdeB-gLq0yP-1" source="jEJD-_JS-CdeB-gLq0yP-59" target="jEJD-_JS-CdeB-gLq0yP-61">
          <mxGeometry relative="1" as="geometry" />
        </mxCell>
        <mxCell id="jEJD-_JS-CdeB-gLq0yP-64" value="Yes" style="edgeLabel;html=1;align=center;verticalAlign=middle;resizable=0;points=[];" vertex="1" connectable="0" parent="jEJD-_JS-CdeB-gLq0yP-62">
          <mxGeometry x="-0.9289" y="1" relative="1" as="geometry">
            <mxPoint as="offset" />
          </mxGeometry>
        </mxCell>
        <mxCell id="jEJD-_JS-CdeB-gLq0yP-66" style="edgeStyle=orthogonalEdgeStyle;rounded=0;orthogonalLoop=1;jettySize=auto;html=1;exitX=1;exitY=0.5;exitDx=0;exitDy=0;entryX=0.5;entryY=1;entryDx=0;entryDy=0;" edge="1" parent="jEJD-_JS-CdeB-gLq0yP-1" source="jEJD-_JS-CdeB-gLq0yP-61" target="jEJD-_JS-CdeB-gLq0yP-65">
          <mxGeometry relative="1" as="geometry" />
        </mxCell>
        <mxCell id="jEJD-_JS-CdeB-gLq0yP-73" style="edgeStyle=orthogonalEdgeStyle;rounded=0;orthogonalLoop=1;jettySize=auto;html=1;exitX=0.5;exitY=1;exitDx=0;exitDy=0;entryX=1;entryY=0.5;entryDx=0;entryDy=0;" edge="1" parent="jEJD-_JS-CdeB-gLq0yP-1" source="jEJD-_JS-CdeB-gLq0yP-67" target="jEJD-_JS-CdeB-gLq0yP-72">
          <mxGeometry relative="1" as="geometry">
            <Array as="points">
              <mxPoint x="440" y="188" />
              <mxPoint x="440" y="500" />
              <mxPoint x="230" y="500" />
              <mxPoint x="230" y="560" />
            </Array>
          </mxGeometry>
        </mxCell>
        <mxCell id="jEJD-_JS-CdeB-gLq0yP-78" value="No" style="edgeLabel;html=1;align=center;verticalAlign=middle;resizable=0;points=[];" vertex="1" connectable="0" parent="jEJD-_JS-CdeB-gLq0yP-73">
          <mxGeometry x="-0.9372" y="-2" relative="1" as="geometry">
            <mxPoint as="offset" />
          </mxGeometry>
        </mxCell>
        <mxCell id="jEJD-_JS-CdeB-gLq0yP-76" style="edgeStyle=orthogonalEdgeStyle;rounded=0;orthogonalLoop=1;jettySize=auto;html=1;exitX=0;exitY=0.5;exitDx=0;exitDy=0;entryX=0.5;entryY=1;entryDx=0;entryDy=0;" edge="1" parent="jEJD-_JS-CdeB-gLq0yP-1" source="jEJD-_JS-CdeB-gLq0yP-72" target="jEJD-_JS-CdeB-gLq0yP-75">
          <mxGeometry relative="1" as="geometry" />
        </mxCell>
        <mxCell id="jEJD-_JS-CdeB-gLq0yP-84" style="edgeStyle=orthogonalEdgeStyle;rounded=0;orthogonalLoop=1;jettySize=auto;html=1;exitX=0.25;exitY=1;exitDx=0;exitDy=0;entryX=0.5;entryY=0;entryDx=0;entryDy=0;" edge="1" parent="jEJD-_JS-CdeB-gLq0yP-1" source="jEJD-_JS-CdeB-gLq0yP-81" target="jEJD-_JS-CdeB-gLq0yP-83">
          <mxGeometry relative="1" as="geometry" />
        </mxCell>
        <mxCell id="jEJD-_JS-CdeB-gLq0yP-85" value="Email Verification" style="edgeLabel;html=1;align=center;verticalAlign=middle;resizable=0;points=[];" vertex="1" connectable="0" parent="jEJD-_JS-CdeB-gLq0yP-84">
          <mxGeometry x="-0.7165" y="-2" relative="1" as="geometry">
            <mxPoint as="offset" />
          </mxGeometry>
        </mxCell>
        <mxCell id="jEJD-_JS-CdeB-gLq0yP-93" style="edgeStyle=orthogonalEdgeStyle;rounded=0;orthogonalLoop=1;jettySize=auto;html=1;exitX=0.5;exitY=1;exitDx=0;exitDy=0;entryX=1;entryY=0.5;entryDx=0;entryDy=0;" edge="1" parent="jEJD-_JS-CdeB-gLq0yP-1" source="jEJD-_JS-CdeB-gLq0yP-87" target="jEJD-_JS-CdeB-gLq0yP-92">
          <mxGeometry relative="1" as="geometry" />
        </mxCell>
        <mxCell id="jEJD-_JS-CdeB-gLq0yP-101" style="edgeStyle=orthogonalEdgeStyle;rounded=0;orthogonalLoop=1;jettySize=auto;html=1;exitX=0.5;exitY=0;exitDx=0;exitDy=0;entryX=0.167;entryY=1;entryDx=0;entryDy=0;entryPerimeter=0;" edge="1" parent="jEJD-_JS-CdeB-gLq0yP-1" source="jEJD-_JS-CdeB-gLq0yP-98" target="jEJD-_JS-CdeB-gLq0yP-87">
          <mxGeometry relative="1" as="geometry" />
        </mxCell>
        <mxCell id="jEJD-_JS-CdeB-gLq0yP-102" value="No" style="edgeLabel;html=1;align=center;verticalAlign=middle;resizable=0;points=[];" vertex="1" connectable="0" parent="jEJD-_JS-CdeB-gLq0yP-101">
          <mxGeometry x="-0.8457" y="-2" relative="1" as="geometry">
            <mxPoint as="offset" />
          </mxGeometry>
        </mxCell>
        <mxCell id="jEJD-_JS-CdeB-gLq0yP-39" value="DataBase " style="swimlane;" vertex="1" parent="1">
          <mxGeometry x="1000" y="160" width="200" height="660" as="geometry" />
        </mxCell>
        <mxCell id="jEJD-_JS-CdeB-gLq0yP-40" value="" style="group" vertex="1" connectable="0" parent="jEJD-_JS-CdeB-gLq0yP-39">
          <mxGeometry x="30" y="50" width="140" height="180" as="geometry" />
        </mxCell>
        <mxCell id="jEJD-_JS-CdeB-gLq0yP-41" value="OtpSession" style="swimlane;fontStyle=0;childLayout=stackLayout;horizontal=1;startSize=26;fillColor=none;horizontalStack=0;resizeParent=1;resizeParentMax=0;resizeLast=0;collapsible=1;marginBottom=0;html=1;strokeColor=default;" vertex="1" parent="jEJD-_JS-CdeB-gLq0yP-40">
          <mxGeometry width="140" height="102" as="geometry" />
        </mxCell>
        <mxCell id="jEJD-_JS-CdeB-gLq0yP-42" value="&amp;nbsp;target" style="text;strokeColor=default;fillColor=none;align=left;verticalAlign=top;spacingLeft=4;spacingRight=4;overflow=hidden;rotatable=0;points=[[0,0.5],[1,0.5]];portConstraint=eastwest;whiteSpace=wrap;html=1;" vertex="1" parent="jEJD-_JS-CdeB-gLq0yP-41">
          <mxGeometry y="26" width="140" height="24" as="geometry" />
        </mxCell>
        <mxCell id="jEJD-_JS-CdeB-gLq0yP-43" value="sessionId" style="text;strokeColor=default;fillColor=none;align=left;verticalAlign=top;spacingLeft=4;spacingRight=4;overflow=hidden;rotatable=0;points=[[0,0.5],[1,0.5]];portConstraint=eastwest;whiteSpace=wrap;html=1;" vertex="1" parent="jEJD-_JS-CdeB-gLq0yP-41">
          <mxGeometry y="50" width="140" height="26" as="geometry" />
        </mxCell>
        <mxCell id="jEJD-_JS-CdeB-gLq0yP-44" value="otpHash" style="text;strokeColor=default;fillColor=none;align=left;verticalAlign=top;spacingLeft=4;spacingRight=4;overflow=hidden;rotatable=0;points=[[0,0.5],[1,0.5]];portConstraint=eastwest;whiteSpace=wrap;html=1;" vertex="1" parent="jEJD-_JS-CdeB-gLq0yP-41">
          <mxGeometry y="76" width="140" height="26" as="geometry" />
        </mxCell>
        <mxCell id="jEJD-_JS-CdeB-gLq0yP-45" value="attempts" style="text;strokeColor=default;fillColor=none;align=left;verticalAlign=top;spacingLeft=4;spacingRight=4;overflow=hidden;rotatable=0;points=[[0,0.5],[1,0.5]];portConstraint=eastwest;whiteSpace=wrap;html=1;" vertex="1" parent="jEJD-_JS-CdeB-gLq0yP-40">
          <mxGeometry y="102" width="140" height="26" as="geometry" />
        </mxCell>
        <mxCell id="jEJD-_JS-CdeB-gLq0yP-46" value="&lt;font style=&quot;font-size: 10px;&quot;&gt;purpose: email_verification&lt;/font&gt;" style="text;strokeColor=default;fillColor=none;align=left;verticalAlign=top;spacingLeft=4;spacingRight=4;overflow=hidden;rotatable=0;points=[[0,0.5],[1,0.5]];portConstraint=eastwest;whiteSpace=wrap;html=1;" vertex="1" parent="jEJD-_JS-CdeB-gLq0yP-40">
          <mxGeometry y="128" width="140" height="26" as="geometry" />
        </mxCell>
        <mxCell id="jEJD-_JS-CdeB-gLq0yP-47" value="&lt;font style=&quot;font-size: 10px;&quot;&gt;verified&lt;/font&gt;" style="text;strokeColor=default;fillColor=none;align=left;verticalAlign=top;spacingLeft=4;spacingRight=4;overflow=hidden;rotatable=0;points=[[0,0.5],[1,0.5]];portConstraint=eastwest;whiteSpace=wrap;html=1;" vertex="1" parent="jEJD-_JS-CdeB-gLq0yP-40">
          <mxGeometry y="154" width="140" height="26" as="geometry" />
        </mxCell>
        <mxCell id="jEJD-_JS-CdeB-gLq0yP-49" value="" style="group" vertex="1" connectable="0" parent="1">
          <mxGeometry x="1030" y="430" width="140" height="180" as="geometry" />
        </mxCell>
        <mxCell id="jEJD-_JS-CdeB-gLq0yP-50" value="User" style="swimlane;fontStyle=0;childLayout=stackLayout;horizontal=1;startSize=26;fillColor=none;horizontalStack=0;resizeParent=1;resizeParentMax=0;resizeLast=0;collapsible=1;marginBottom=0;html=1;strokeColor=default;" vertex="1" parent="jEJD-_JS-CdeB-gLq0yP-49">
          <mxGeometry width="140" height="102" as="geometry" />
        </mxCell>
        <mxCell id="jEJD-_JS-CdeB-gLq0yP-51" value="username" style="text;strokeColor=default;fillColor=none;align=left;verticalAlign=top;spacingLeft=4;spacingRight=4;overflow=hidden;rotatable=0;points=[[0,0.5],[1,0.5]];portConstraint=eastwest;whiteSpace=wrap;html=1;" vertex="1" parent="jEJD-_JS-CdeB-gLq0yP-50">
          <mxGeometry y="26" width="140" height="24" as="geometry" />
        </mxCell>
        <mxCell id="jEJD-_JS-CdeB-gLq0yP-52" value="email" style="text;strokeColor=default;fillColor=none;align=left;verticalAlign=top;spacingLeft=4;spacingRight=4;overflow=hidden;rotatable=0;points=[[0,0.5],[1,0.5]];portConstraint=eastwest;whiteSpace=wrap;html=1;" vertex="1" parent="jEJD-_JS-CdeB-gLq0yP-50">
          <mxGeometry y="50" width="140" height="26" as="geometry" />
        </mxCell>
        <mxCell id="jEJD-_JS-CdeB-gLq0yP-53" value="passwordHash" style="text;strokeColor=default;fillColor=none;align=left;verticalAlign=top;spacingLeft=4;spacingRight=4;overflow=hidden;rotatable=0;points=[[0,0.5],[1,0.5]];portConstraint=eastwest;whiteSpace=wrap;html=1;" vertex="1" parent="jEJD-_JS-CdeB-gLq0yP-50">
          <mxGeometry y="76" width="140" height="26" as="geometry" />
        </mxCell>
        <mxCell id="jEJD-_JS-CdeB-gLq0yP-54" value="roles" style="text;strokeColor=default;fillColor=none;align=left;verticalAlign=top;spacingLeft=4;spacingRight=4;overflow=hidden;rotatable=0;points=[[0,0.5],[1,0.5]];portConstraint=eastwest;whiteSpace=wrap;html=1;" vertex="1" parent="jEJD-_JS-CdeB-gLq0yP-49">
          <mxGeometry y="102" width="140" height="26" as="geometry" />
        </mxCell>
        <mxCell id="jEJD-_JS-CdeB-gLq0yP-55" value="&lt;font style=&quot;font-size: 10px;&quot;&gt;isEmailVerified&lt;/font&gt;" style="text;strokeColor=default;fillColor=none;align=left;verticalAlign=top;spacingLeft=4;spacingRight=4;overflow=hidden;rotatable=0;points=[[0,0.5],[1,0.5]];portConstraint=eastwest;whiteSpace=wrap;html=1;" vertex="1" parent="jEJD-_JS-CdeB-gLq0yP-49">
          <mxGeometry y="128" width="140" height="26" as="geometry" />
        </mxCell>
        <mxCell id="jEJD-_JS-CdeB-gLq0yP-56" value="&lt;font style=&quot;font-size: 10px;&quot;&gt;mfaEnabled&amp;nbsp;&amp;nbsp;&lt;/font&gt;" style="text;strokeColor=default;fillColor=none;align=left;verticalAlign=top;spacingLeft=4;spacingRight=4;overflow=hidden;rotatable=0;points=[[0,0.5],[1,0.5]];portConstraint=eastwest;whiteSpace=wrap;html=1;" vertex="1" parent="jEJD-_JS-CdeB-gLq0yP-49">
          <mxGeometry y="154" width="140" height="26" as="geometry" />
        </mxCell>
        <mxCell id="jEJD-_JS-CdeB-gLq0yP-90" style="edgeStyle=orthogonalEdgeStyle;rounded=0;orthogonalLoop=1;jettySize=auto;html=1;exitX=1;exitY=0.5;exitDx=0;exitDy=0;entryX=0;entryY=0.077;entryDx=0;entryDy=0;entryPerimeter=0;dashed=1;" edge="1" parent="1" source="jEJD-_JS-CdeB-gLq0yP-83" target="jEJD-_JS-CdeB-gLq0yP-44">
          <mxGeometry relative="1" as="geometry">
            <Array as="points">
              <mxPoint x="1010" y="630" />
              <mxPoint x="1010" y="288" />
            </Array>
          </mxGeometry>
        </mxCell>
      </root>
    </mxGraphModel>
  </diagram>
</mxfile>
